<?xml version="1.0" encoding="utf-8"?>
<!-- Generator: Adobe Illustrator 22.1.0, SVG Export Plug-In . SVG Version: 6.00 Build 0)  -->
<svg version="1.1" id="Layer_1" xmlns="http://www.w3.org/2000/svg" xmlns:xlink="http://www.w3.org/1999/xlink" x="0px" y="0px"
	 viewBox="0 0 65.1 53" style="enable-background:new 0 0 65.1 53;" xml:space="preserve">
<style type="text/css">
	.st0{fill:#45A29E;}
</style>
<g>
	<path class="st0" d="M39.5,25.7l2.1-4l-4.1-4.1l-3.9,1.8l-2.7-1.1l-0.6-4.1h-7.6L22,18.3l-2.7,1.1l-3.9-1.8l-4.1,4.1l1.8,3.9
		c-0.2,0.5-0.4,0.9-0.6,1.3c-0.2,0.4-0.3,0.7-0.5,1.2h-1v1.5h2l0.2-0.5c0.3-0.7,0.5-1.2,0.7-1.6c0.2-0.5,0.4-1,0.7-1.7l0.1-0.3
		L13.2,22l2.6-2.6l3.5,1.7l4.1-1.7l0.6-3.6h5l0.6,3.6l4.1,1.7l3.5-1.7l2.5,2.5L38,25.4v2.7h17.7v9.2H29.5v-9.2h6.9v-1.5h-2.2
		c-1.9-2.4-4.8-3.8-7.9-3.8c-5.5,0-10,4.5-10,10s4.5,10,10,10c3.1,0,6-1.4,7.9-3.8h22.9V26.6H39.5V25.7z M28,30.1
		c-0.5-0.3-1-0.5-1.6-0.4c-0.8,0-1.6,0.4-2.2,0.9c-0.6,0.6-0.9,1.4-0.9,2.2c0,0.8,0.4,1.6,0.9,2.2c0.6,0.6,1.3,0.9,2.1,0.9
		c0,0,0,0,0.1,0c0.6,0,1.1-0.2,1.5-0.4v2.5c-0.5,0.2-1,0.2-1.6,0.2c-3,0-5.4-2.4-5.4-5.4s2.4-5.4,5.4-5.4c0.5,0,1.1,0.1,1.6,0.2
		V30.1z M27.9,32.7c0,0.8-0.7,1.6-1.5,1.6c-0.4,0-0.8-0.1-1.1-0.4c-0.3-0.3-0.5-0.7-0.5-1.1c0-0.4,0.1-0.8,0.4-1.1
		c0.3-0.3,0.7-0.5,1.1-0.5c0,0,0,0,0,0C27.2,31.2,27.9,31.8,27.9,32.7z M26.4,41.2c-4.7,0-8.5-3.8-8.5-8.5s3.8-8.5,8.5-8.5
		c2.2,0,4.2,0.8,5.8,2.3h-2.7l0,0c-1-0.5-2-0.7-3.1-0.7c-3.8,0-6.9,3.1-6.9,6.9s3.1,6.9,6.9,6.9c1.1,0,2.2-0.3,3.2-0.8h2.6
		C30.6,40.3,28.6,41.2,26.4,41.2z"/>
	<rect x="31" y="34.2" class="st0" width="1.5" height="1.5"/>
	<rect x="34.1" y="34.2" class="st0" width="1.5" height="1.5"/>
	<rect x="37.2" y="34.2" class="st0" width="10.8" height="1.5"/>
	<rect x="49.5" y="34.2" class="st0" width="1.5" height="1.5"/>
	<rect x="52.6" y="34.2" class="st0" width="1.5" height="1.5"/>
	<rect x="31" y="29.6" class="st0" width="1.5" height="1.5"/>
	<rect x="34.1" y="29.6" class="st0" width="1.5" height="1.5"/>
	<rect x="37.2" y="29.6" class="st0" width="1.5" height="1.5"/>
	<rect x="40.3" y="29.6" class="st0" width="1.5" height="1.5"/>
	<rect x="43.3" y="29.6" class="st0" width="1.5" height="1.5"/>
	<rect x="46.4" y="29.6" class="st0" width="1.5" height="1.5"/>
	<rect x="49.5" y="29.6" class="st0" width="1.5" height="1.5"/>
	<rect x="52.6" y="29.6" class="st0" width="1.5" height="1.5"/>
	<rect x="31" y="31.9" class="st0" width="3.1" height="1.5"/>
	<rect x="35.7" y="31.9" class="st0" width="1.5" height="1.5"/>
	<rect x="38.7" y="31.9" class="st0" width="1.5" height="1.5"/>
	<rect x="41.8" y="31.9" class="st0" width="1.5" height="1.5"/>
	<rect x="44.9" y="31.9" class="st0" width="1.5" height="1.5"/>
	<rect x="48" y="31.9" class="st0" width="1.5" height="1.5"/>
	<rect x="51" y="31.9" class="st0" width="3.1" height="1.5"/>
	<path class="st0" d="M37.2,2V5H8v25.3h0v5.3l4.1,1.3l1.1,2.8l-1.8,3.9l4.1,4.1l3.9-1.8l2.7,1.1l0.6,4.1h7.6l0.6-4.1l2.7-1.1
		l3.9,1.8l4.1-4.1l-2-4.2l-1.4,0.7l1.5,3.2l-2.6,2.6l-3.5-1.7l-4.1,1.7l-0.6,3.6h-5l-0.6-3.6l-4.1-1.7l-3.5,1.7l-2.6-2.6l1.7-3.5
		l-1.7-4.1l-3.7-1.2v-1.8h0V9.6h27.7v4.6h18.5V25h1.5V14.3v-1.5v-1.5V9.6V2H37.2z M9.5,8.1V6.6h27.7v1.5H9.5z M55.6,11.2v1.5H38.7
		V3.5h16.9v6.2V11.2z"/>
	<polygon class="st0" points="43.2,5.3 40.3,8.1 43.2,11 44.3,9.9 42.5,8.1 44.3,6.3 	"/>
	<polygon class="st0" points="50.1,6.3 51.9,8.1 50.1,9.9 51.2,11 54,8.1 51.2,5.3 	"/>
	<rect x="44.4" y="7.3" transform="matrix(0.5547 -0.8321 0.8321 0.5547 14.27 42.8692)" class="st0" width="5.5" height="1.5"/>
	<rect x="49.5" y="40.4" class="st0" width="1.5" height="1.5"/>
	<rect x="52.6" y="40.4" class="st0" width="1.5" height="1.5"/>
	<rect x="55.6" y="40.4" class="st0" width="1.5" height="1.5"/>
</g>
</svg>
