<?xml version="1.0" encoding="utf-8"?>
<!-- Generator: Adobe Illustrator 22.1.0, SVG Export Plug-In . SVG Version: 6.00 Build 0)  -->
<svg version="1.1" id="Layer_1" xmlns="http://www.w3.org/2000/svg" xmlns:xlink="http://www.w3.org/1999/xlink" x="0px" y="0px"
	 viewBox="0 0 65.1 53" style="enable-background:new 0 0 65.1 53;" xml:space="preserve">
<style type="text/css">
	.st0{fill:#45A29E;}
</style>
<g>
	<path class="st0" d="M24.1,51.1h33.1V32.6H24.1V51.1z M38.1,43.6c0.7,0.5,1.4,0.7,2.2,0.7c0.7,0,1.5-0.2,2.1-0.7l3.3-2.2l8.7,8.1
		H26.8l8.5-7.9L38.1,43.6z M47,40.6l8.6-5.7v13.7L47,40.6z M41.6,42.4c-0.8,0.5-1.8,0.5-2.6,0l-11.7-8.2h26.5L41.6,42.4z M34.1,40.8
		l-8.4,7.8V34.9L34.1,40.8z"/>
	<polygon class="st0" points="43.3,12.7 43.3,14.2 55.6,14.2 55.6,23.4 41.8,23.4 41.8,1.9 8,1.9 8,51.1 22.6,51.1 22.6,49.6 
		9.5,49.6 9.5,3.4 40.3,3.4 40.3,25 57.2,25 57.2,12.7 	"/>
	<rect x="14" y="8" class="st0" width="4.7" height="1.5"/>
	<rect x="14.1" y="11.1" class="st0" width="4.6" height="1.5"/>
	<path class="st0" d="M54.9,26.5h-1.5V28h1.5c0.4,0,0.8,0.3,0.8,0.8c0,0.4-0.3,0.8-0.8,0.8h-2.3v-3.1h-10V28H51v1.5H29.1
		c-1.3,0-2.7-0.3-4.2-0.8c1.5-0.5,2.9-0.8,4.2-0.8h12v-1.5h-12c-1.9,0-3.9,0.5-6,1.4L22.7,28h-0.9v1.5h0.9l0.4,0.2
		c2.1,0.9,4.2,1.4,6,1.4h25.8c1.3,0,2.3-1,2.3-2.3S56.1,26.5,54.9,26.5z"/>
	<rect x="15.6" y="43.4" class="st0" width="6.9" height="1.5"/>
	<rect x="15.6" y="40.3" class="st0" width="6.9" height="1.5"/>
	<rect x="15.6" y="37.3" class="st0" width="6.9" height="1.5"/>
	<rect x="15.6" y="34.2" class="st0" width="6.9" height="1.5"/>
	<rect x="14.1" y="14.2" class="st0" width="21.5" height="1.5"/>
	<rect x="14.1" y="17.3" class="st0" width="21.5" height="1.5"/>
	<rect x="14.1" y="20.3" class="st0" width="16.9" height="1.5"/>
	<rect x="43.2" y="15.7" class="st0" width="4.7" height="1.5"/>
	<rect x="43.3" y="18.8" class="st0" width="4.6" height="1.5"/>
</g>
</svg>
