<?xml version="1.0" encoding="utf-8"?>
<!-- Generator: Adobe Illustrator 22.1.0, SVG Export Plug-In . SVG Version: 6.00 Build 0)  -->
<svg version="1.1" id="Layer_1" xmlns="http://www.w3.org/2000/svg" xmlns:xlink="http://www.w3.org/1999/xlink" x="0px" y="0px"
	 viewBox="0 0 65.1 53" style="enable-background:new 0 0 65.1 53;" xml:space="preserve">
<style type="text/css">
	.st0{fill:#45A29E;}
</style>
<g>
	<path class="st0" d="M39.5,36.7c0-2.5,0.8-4.8,2.2-6.8l1.8-2.6c0.3-0.3,0.8-1.2,0.9-1.3c0.9-1.5,1.5-3.1,1.8-4.8h3.5l4.6-2.3
		l-4.6-2.3h-3.4C45.1,9.9,39.3,4.9,32.5,5c-2.4,0-4.8,0.6-6.8,1.8l0.8,1.3c1.8-1.1,3.9-1.6,6.1-1.6c0,0,0,0,0,0
		c6.4,0,11.8,5,12.3,11.4c0.2,2.5-0.4,5-1.7,7.1c-0.2,0.3-0.6,1-0.8,1.2L40.5,29c-1.6,2.3-2.5,4.9-2.5,7.7v0.6
		c0,0.8-0.7,1.5-1.5,1.5v1.5c0,0,0,0,0,0v0h2.3v0.8c0,0.4-0.3,0.8-0.8,0.8h-1.5v1.5h1.5c0.4,0,0.8,0.3,0.8,0.8s-0.3,0.8-0.8,0.8
		h-1.5v0.8v0.8v0.5l-2.6,2.6h-2.4l-2.6-2.6v-0.5h6.3v-1.5h-7.9c-0.4,0-0.8-0.3-0.8-0.8s0.3-0.8,0.8-0.8h7.7v-1.5h-7.7
		c-0.4,0-0.8-0.3-0.8-0.8v-0.8h2.9h5.6v-1.5h0h-5.5c-1.2,0-2.1-1-2.1-2.1c0-2.8-0.9-5.5-2.5-7.7l-1.9-2.7c-0.2-0.2-0.6-1-0.8-1.2
		c-0.7-1.2-1.2-2.6-1.5-4h7.5v-1.5h-7.7c0-0.3,0-0.5,0-0.8c0-0.2,0-0.5,0-0.7h7.7v-1.5h-7.5c0.6-3,2.3-5.8,4.8-7.6l-0.9-1.2
		c-2.9,2.1-4.9,5.3-5.5,8.9h-5.6c-1.3,0-2.3,1-2.3,2.3s1,2.3,2.3,2.3h5.6c0.3,1.7,0.9,3.3,1.8,4.8c0.1,0.1,0.6,1,0.9,1.3l1.9,2.7
		c1.5,2,2.2,4.3,2.2,6.8c0,0.8,0.3,1.5,0.7,2.1h-1.5v2.3c0,0.6,0.2,1.1,0.6,1.5c-0.4,0.4-0.6,0.9-0.6,1.5c0,1.3,1,2.3,2.3,2.3v1.1
		l3.5,3.5h3.7l3.5-3.5v-1.1c1.3,0,2.3-1,2.3-2.3c0-0.6-0.2-1.1-0.6-1.5c0.4-0.4,0.6-0.9,0.6-1.5v-2.3H39c0.3-0.5,0.4-1,0.4-1.5V36.7
		z M50.8,18.8l-1.5,0.8h-2.9c0-0.5,0-1,0-1.5h2.9L50.8,18.8z M13.3,19.6c-0.4,0-0.8-0.3-0.8-0.8s0.3-0.8,0.8-0.8h5.4
		c0,0.2,0,0.5,0,0.7c0,0.3,0,0.6,0,0.8H13.3z"/>
	<rect x="16.6" y="23.6" transform="matrix(0.9397 -0.342 0.342 0.9397 -7.2722 7.414)" class="st0" width="1.5" height="1.5"/>
	<rect x="47" y="12.5" transform="matrix(0.9397 -0.3421 0.3421 0.9397 -1.6643 17.1306)" class="st0" width="1.5" height="1.5"/>
	<rect x="17.8" y="26.1" transform="matrix(0.866 -0.5 0.5 0.866 -10.9508 12.8896)" class="st0" width="1.5" height="1.5"/>
	<rect x="45.8" y="10" transform="matrix(0.866 -0.5 0.5 0.866 0.8693 24.7093)" class="st0" width="1.5" height="1.5"/>
	
		<rect x="19.4" y="28.4" transform="matrix(0.7661 -0.6428 0.6428 0.7661 -14.0348 19.8037)" class="st0" width="1.5" height="1.5"/>
	<rect x="44.2" y="7.7" transform="matrix(0.7662 -0.6426 0.6426 0.7662 5.0892 30.8414)" class="st0" width="1.5" height="1.5"/>
	<rect x="21.4" y="30.4" transform="matrix(0.6426 -0.7662 0.7662 0.6426 -15.958 28.134)" class="st0" width="1.5" height="1.5"/>
	<rect x="42.2" y="5.7" transform="matrix(0.6426 -0.7662 0.7662 0.6426 10.4119 35.1969)" class="st0" width="1.5" height="1.5"/>
	<rect x="39.9" y="4.1" transform="matrix(0.4999 -0.8661 0.8661 0.4999 16.1416 37.601)" class="st0" width="1.5" height="1.5"/>
	<rect x="37.3" y="2.9" transform="matrix(0.3421 -0.9397 0.9397 0.3421 21.6379 38.1727)" class="st0" width="1.5" height="1.5"/>
	<rect x="29" y="33.9" transform="matrix(0.1733 -0.9849 0.9849 0.1733 -9.5836 57.9937)" class="st0" width="1.5" height="1.5"/>
	<rect x="34.6" y="2.1" transform="matrix(0.1738 -0.9848 0.9848 0.1738 26.3544 37.2234)" class="st0" width="1.5" height="1.5"/>
	<rect x="31.8" y="34.2" class="st0" width="1.5" height="1.5"/>
	<rect x="31.8" y="1.9" class="st0" width="1.5" height="1.5"/>
	<rect x="34.6" y="33.9" transform="matrix(0.9848 -0.1738 0.1738 0.9848 -5.494 6.6746)" class="st0" width="1.5" height="1.5"/>
	
		<rect x="29" y="2.1" transform="matrix(0.9848 -0.1736 0.1736 0.9848 -5.259109e-02 5.2087)" class="st0" width="1.5" height="1.5"/>
	<rect x="26.3" y="2.9" transform="matrix(0.9398 -0.3418 0.3418 0.9398 0.3865 9.4603)" class="st0" width="1.5" height="1.5"/>
	<rect x="23.7" y="4.1" transform="matrix(0.8661 -0.4999 0.4999 0.8661 0.8682 12.8866)" class="st0" width="1.5" height="1.5"/>
	<rect x="42.2" y="30.4" transform="matrix(0.7661 -0.6428 0.6428 0.7661 -9.9929 34.8909)" class="st0" width="1.5" height="1.5"/>
	<rect x="21.4" y="5.7" transform="matrix(0.7661 -0.6428 0.6428 0.7661 1.0511 15.7625)" class="st0" width="1.5" height="1.5"/>
	<rect x="44.2" y="28.4" transform="matrix(0.6426 -0.7662 0.7662 0.6426 -6.3044 44.8506)" class="st0" width="1.5" height="1.5"/>
	<rect x="19.4" y="7.7" transform="matrix(0.6428 -0.7661 0.7661 0.6428 0.7568 18.4775)" class="st0" width="1.5" height="1.5"/>
	<rect x="45.8" y="26.1" transform="matrix(0.5 -0.866 0.866 0.5 -7.782747e-03 53.7427)" class="st0" width="1.5" height="1.5"/>
	<rect x="17.8" y="10" transform="matrix(0.5 -0.866 0.866 0.5 -7.301898e-03 21.4526)" class="st0" width="1.5" height="1.5"/>
	<rect x="47" y="23.6" transform="matrix(0.3419 -0.9397 0.9397 0.3419 8.5495 60.8631)" class="st0" width="1.5" height="1.5"/>
	<rect x="16.6" y="12.5" transform="matrix(0.3421 -0.9397 0.9397 0.3421 -1.0436 25.0761)" class="st0" width="1.5" height="1.5"/>
	<path class="st0" d="M14.6,4.3v2.2h1.5V1.9h-4.6v1.5h1.8c-7.8,9.7-7.1,23.8,1.9,32.7l1.1-1.1C7.8,26.6,7.2,13.4,14.6,4.3z"/>
	<path class="st0" d="M50.5,1.9L49.4,3c8.5,9,8.4,22.9-0.2,31.8v-2.1h-1.5v4.6h4.6v-1.5h-1.9C59.4,26.2,59.5,11.5,50.5,1.9z"/>
</g>
</svg>
