<?xml version="1.0" encoding="utf-8"?>
<!-- Generator: Adobe Illustrator 22.1.0, SVG Export Plug-In . SVG Version: 6.00 Build 0)  -->
<svg version="1.1" id="Layer_1" xmlns="http://www.w3.org/2000/svg" xmlns:xlink="http://www.w3.org/1999/xlink" x="0px" y="0px"
	 viewBox="0 0 65.1 53" style="enable-background:new 0 0 65.1 53;" xml:space="preserve">
<style type="text/css">
	.st0{fill:#45A29E;}
</style>
<g>
	<path class="st0" d="M37.2,35.7h1.5v-1.5h-1.5v-1.5h1.5v-1.5h-1.3c2.9-3.4,3.7-8.2,1.9-12.5L36,10.6c-0.7-1.8-1.1-3.7-1.1-5.6h7.1
		c0.3,0.9,1.2,1.5,2.2,1.5c1.3,0,2.3-1,2.3-2.3s-1-2.3-2.3-2.3c-1,0-1.8,0.6-2.2,1.5h-7.1V1.9h-4.6v1.5h-7.1C22.9,2.5,22,1.9,21,1.9
		c-1.3,0-2.3,1-2.3,2.3s1,2.3,2.3,2.3c1,0,1.8-0.6,2.2-1.5h7.1c0,2-0.4,3.9-1.1,5.6l-3.4,8.1c-1.8,4.2-1,9,1.9,12.5h-1.3v1.5H28v1.5
		h-1.5v1.5H28v3.1H10.3c-0.4,0-0.8-0.3-0.8-0.8v-2.3H21h0.8h3.1v-1.5h-3.1v-1.5v-1.5v-1.5V28v-1.5V25v-1.5v-1.5v-1.5v-1.5v-1.5v-1.5
		V8h-9.2v24.6h1.5V9.6h6.2v6.2h-3.1v1.5h3.1v1.5h-1.5v1.5h1.5v1.5h-1.5v1.5h1.5V25h-1.5v1.5h1.5V28h-3.1v1.5h3.1v1.5h-1.5v1.5h1.5
		v1.5H8V38c0,1.3,1,2.3,2.3,2.3H28v9.2H17.2v1.5h30.8v-1.5H37.2V35.7z M44.1,3.4c0.4,0,0.8,0.3,0.8,0.8c0,0.4-0.3,0.8-0.8,0.8
		c-0.4,0-0.8-0.3-0.8-0.8C43.3,3.8,43.7,3.4,44.1,3.4z M21,5c-0.4,0-0.8-0.3-0.8-0.8c0-0.4,0.3-0.8,0.8-0.8c0.4,0,0.8,0.3,0.8,0.8
		C21.8,4.6,21.5,5,21,5z M27.2,19.2l3.4-8.1c0.8-1.9,1.2-4,1.2-6.2V3.4h1.5V5c0,2.1,0.4,4.2,1.2,6.2l3.4,8.1
		c1.7,4.1,0.7,8.8-2.6,11.9h-5.5C26.6,28.1,25.5,23.4,27.2,19.2z M29.5,32.6h6.2v1.5h-6.2V32.6z M29.5,40.3h4.6v-1.5h-4.6v-3.1h6.2
		v13.8h-6.2V40.3z"/>
	<path class="st0" d="M31.8,19.5c-0.2,0.2-0.4,0.5-0.4,0.9c0,0.6,0.5,1.2,1.2,1.2c0.6,0,1.2-0.5,1.2-1.2c0-0.3-0.2-0.6-0.4-0.9V18V5
		h-1.5V18V19.5z"/>
	<path class="st0" d="M54.9,3.4h-6.9V5h6.9c0.4,0,0.8,0.3,0.8,0.8v26.9h1.5V5.7C57.2,4.5,56.1,3.4,54.9,3.4z"/>
	<path class="st0" d="M40.3,35.7h15.4V38c0,0.4-0.3,0.8-0.8,0.8h-16v1.5h16c1.3,0,2.3-1,2.3-2.3v-3.8H40.3V35.7z"/>
	<path class="st0" d="M9.5,5.7C9.5,5.3,9.8,5,10.3,5h6.9V3.4h-6.9C9,3.4,8,4.5,8,5.7v27.7h1.5V5.7z"/>
	<path class="st0" d="M53.3,32.6V21L47.9,8.4L42.6,21v11.7h1.5V22.5l1.5,1l2.3-1.5l2.3,1.5l1.5-1v10.1H53.3z M49.1,15h-2.3l1.1-2.7
		L49.1,15z M47.9,20.2l-2.3,1.5l-1.3-0.9l1.9-4.3h3.6l1.9,4.3l-1.3,0.9L47.9,20.2z"/>
	<rect x="16.4" y="11.1" class="st0" width="1.5" height="1.5"/>
</g>
</svg>
