<?xml version="1.0" encoding="utf-8"?>
<!-- Generator: Adobe Illustrator 21.1.0, SVG Export Plug-In . SVG Version: 6.00 Build 0)  -->
<svg version="1.1" id="Layer_1" xmlns="http://www.w3.org/2000/svg" xmlns:xlink="http://www.w3.org/1999/xlink" x="0px" y="0px"
	 viewBox="0 0 95.2 97.1" style="enable-background:new 0 0 95.2 97.1;" xml:space="preserve">
<style type="text/css">
	.st0{fill:#C5C6C7;}
</style>
<g>
	<path class="st0" d="M56.5,45.9c-4.9-1.3-6.2-1.9-6.2-3.7v-0.1c0-1.4,1.3-2.5,3.7-2.5s4.9,1.1,7.4,2.8l3.3-4.7
		c-2.9-2.3-6.4-3.6-10.6-3.6c-5.8,0-10,3.4-10,8.6v0.1c0,5.7,3.7,7.3,9.4,8.7c4.8,1.2,5.7,2,5.7,3.6v0.1c0,1.7-1.5,2.7-4.1,2.7
		c-3.3,0-5.9-1.3-8.5-3.5l-2.8,3.3h-6.2V34.8h-6.3v28.5H55l0,0c6.1,0,10.4-3.2,10.4-8.8v-0.1C65.5,49.5,62.2,47.4,56.5,45.9z"/>
</g>
<path class="st0" d="M47.6,5.9C24.1,5.9,4.9,25,4.9,48.6S24,91.3,47.6,91.3c23.5,0,42.7-19.1,42.7-42.7S71.1,5.9,47.6,5.9z
	 M47.6,83.3c-19.2,0-34.7-15.6-34.7-34.7c0-19.2,15.6-34.7,34.7-34.7c19.2,0,34.7,15.6,34.7,34.7S66.8,83.3,47.6,83.3z"/>
</svg>
