<?xml version="1.0" encoding="utf-8"?>
<!-- Generator: Adobe Illustrator 22.1.0, SVG Export Plug-In . SVG Version: 6.00 Build 0)  -->
<svg version="1.1" id="Layer_1" xmlns="http://www.w3.org/2000/svg" xmlns:xlink="http://www.w3.org/1999/xlink" x="0px" y="0px"
	 viewBox="0 0 65.1 53" style="enable-background:new 0 0 65.1 53;" xml:space="preserve">
<style type="text/css">
	.st0{fill:#45A29E;}
</style>
<g>
	<path class="st0" d="M9.5,11.9H31v20h1.5v-20h21.5v-1.5H32.6V8.8h12.3V7.3H8v43.8h33.8v-1.5H9.5V11.9z M17.2,10.3V8.8h6.9v1.5H17.2
		z M31,10.3h-5.4V8.8H31V10.3z M15.6,8.8v1.5H9.5V8.8H15.6z"/>
	<rect x="52.6" y="7.3" class="st0" width="1.5" height="1.5"/>
	<rect x="49.5" y="7.3" class="st0" width="1.5" height="1.5"/>
	<rect x="46.4" y="7.3" class="st0" width="1.5" height="1.5"/>
	<rect x="14.1" y="41.1" class="st0" width="1.5" height="1.5"/>
	<rect x="17.2" y="41.1" class="st0" width="1.5" height="1.5"/>
	<rect x="20.3" y="41.1" class="st0" width="10.8" height="1.5"/>
	<rect x="32.6" y="41.1" class="st0" width="1.5" height="1.5"/>
	<rect x="35.6" y="41.1" class="st0" width="1.5" height="1.5"/>
	<rect x="14.1" y="36.5" class="st0" width="1.5" height="1.5"/>
	<rect x="17.2" y="36.5" class="st0" width="1.5" height="1.5"/>
	<rect x="20.3" y="36.5" class="st0" width="1.5" height="1.5"/>
	<rect x="23.3" y="36.5" class="st0" width="1.5" height="1.5"/>
	<rect x="26.4" y="36.5" class="st0" width="1.5" height="1.5"/>
	<rect x="29.5" y="36.5" class="st0" width="1.5" height="1.5"/>
	<rect x="32.6" y="36.5" class="st0" width="1.5" height="1.5"/>
	<rect x="35.6" y="36.5" class="st0" width="1.5" height="1.5"/>
	<rect x="14.1" y="38.8" class="st0" width="3.1" height="1.5"/>
	<rect x="18.7" y="38.8" class="st0" width="1.5" height="1.5"/>
	<rect x="21.8" y="38.8" class="st0" width="1.5" height="1.5"/>
	<rect x="24.9" y="38.8" class="st0" width="1.5" height="1.5"/>
	<rect x="28" y="38.8" class="st0" width="1.5" height="1.5"/>
	<rect x="31" y="38.8" class="st0" width="1.5" height="1.5"/>
	<rect x="34.1" y="38.8" class="st0" width="3.1" height="1.5"/>
	<polygon class="st0" points="23.3,1.9 23.3,3.4 55.6,3.4 55.6,44.2 12.6,44.2 12.6,35 38.7,35 38.7,42.6 40.3,42.6 40.3,33.4 
		11,33.4 11,45.7 57.2,45.7 57.2,1.9 	"/>
	<rect x="20.3" y="1.9" class="st0" width="1.5" height="1.5"/>
	<rect x="43.3" y="49.6" class="st0" width="1.5" height="1.5"/>
	<path class="st0" d="M54.1,14.2h-20v9.2h20V14.2z M52.6,21.9H35.6v-6.2h16.9V21.9z"/>
	<rect x="11.1" y="14.2" class="st0" width="2.3" height="1.5"/>
	<rect x="15" y="14.2" class="st0" width="13.8" height="1.5"/>
	<rect x="21.9" y="17.3" class="st0" width="6.9" height="1.5"/>
	<rect x="15" y="17.3" class="st0" width="5.4" height="1.5"/>
	<rect x="11.1" y="20.4" class="st0" width="2.3" height="1.5"/>
	<rect x="15" y="20.4" class="st0" width="13.8" height="1.5"/>
	<rect x="15" y="23.5" class="st0" width="13.8" height="1.5"/>
	<rect x="15" y="26.5" class="st0" width="6.2" height="1.5"/>
	<rect x="22.6" y="26.5" class="st0" width="6.2" height="1.5"/>
	<path class="st0" d="M34.1,29.6h8.5V25h-8.5V29.6z M35.6,26.5H41V28h-5.4V26.5z"/>
	<path class="st0" d="M54.1,25h-10v4.6h10V25z M52.6,28h-6.9v-1.5h6.9V28z"/>
	<path class="st0" d="M54.1,31.1h-10v4.6h10V31.1z M52.6,34.2h-6.9v-1.5h6.9V34.2z"/>
	<path class="st0" d="M44.1,41.9h10v-4.6h-10V41.9z M45.6,38.8h6.9v1.5h-6.9V38.8z"/>
</g>
</svg>
