<?xml version="1.0" encoding="utf-8"?>
<!-- Generator: Adobe Illustrator 22.1.0, SVG Export Plug-In . SVG Version: 6.00 Build 0)  -->
<svg version="1.1" id="Layer_1" xmlns="http://www.w3.org/2000/svg" xmlns:xlink="http://www.w3.org/1999/xlink" x="0px" y="0px"
	 viewBox="0 0 65.1 53" style="enable-background:new 0 0 65.1 53;" xml:space="preserve">
<style type="text/css">
	.st0{fill:#45A29E;}
</style>
<g>
	<path class="st0" d="M54.1,16.5h-4.6V4.2c0-1.3-1-2.3-2.3-2.3H10.3C9,1.9,8,2.9,8,4.2V25h1.5V4.2c0-0.4,0.3-0.8,0.8-0.8h36.9
		c0.4,0,0.8,0.3,0.8,0.8v12.3h-6.2c-1.7,0-3.1,1.4-3.1,3.1v6.9H8v3.8c0,1.3,1,2.3,2.3,2.3h14.6l-0.7,4.5l0,0.1h-2.3v1.5h15.4v-1.5
		h-2.3l-0.8-4.6h4.6V48c0,1.7,1.4,3.1,3.1,3.1h12.3c1.7,0,3.1-1.4,3.1-3.1V19.6C57.2,17.9,55.8,16.5,54.1,16.5z M40.3,19.6
		c0-0.8,0.7-1.5,1.5-1.5h6.2v8.5h-7.7V19.6z M47.9,28v2.3c0,0.4-0.3,0.8-0.8,0.8h-6.9V28H47.9z M33.3,37.3h-7.7l0.7-4.5l0-0.1h6.2
		L33.3,37.3z M10.3,31.1c-0.4,0-0.8-0.3-0.8-0.8V28h29.2v3.1H10.3z M55.6,48c0,0.8-0.7,1.5-1.5,1.5H41.8c-0.8,0-1.5-0.7-1.5-1.5
		V32.6h6.9c1.3,0,2.3-1,2.3-2.3V18h4.6c0.8,0,1.5,0.7,1.5,1.5V48z"/>
	<circle class="st0" cx="47.9" cy="46.5" r="1.2"/>
	<rect x="55.6" y="11.1" class="st0" width="1.5" height="1.5"/>
	<rect x="55.6" y="14.2" class="st0" width="1.5" height="1.5"/>
	<polygon class="st0" points="55.3,1.9 53.5,3.7 54.6,4.7 55.6,3.7 55.6,9.2 57.2,9.2 57.2,1.9 	"/>
	<rect x="32.6" y="49.6" class="st0" width="1.5" height="1.5"/>
	<rect x="35.6" y="49.6" class="st0" width="1.5" height="1.5"/>
	<polygon class="st0" points="26.2,48.6 25.1,47.5 23.3,49.2 23.3,51.1 30.6,51.1 30.6,49.6 25.2,49.6 	"/>
</g>
</svg>
