<?xml version="1.0" encoding="utf-8"?>
<!-- Generator: Adobe Illustrator 22.1.0, SVG Export Plug-In . SVG Version: 6.00 Build 0)  -->
<svg version="1.1" id="Layer_1" xmlns="http://www.w3.org/2000/svg" xmlns:xlink="http://www.w3.org/1999/xlink" x="0px" y="0px"
	 viewBox="0 0 65.1 53" style="enable-background:new 0 0 65.1 53;" xml:space="preserve">
<style type="text/css">
	.st0{fill:#45A29E;}
</style>
<g>
	<path class="st0" d="M48.6,32.9c-0.9,0-1.9-0.1-2.8-0.1v-6c0.7,0.3,1.5,0.5,2.3,0.5v-1.5c-2.2,0-4-1.8-4-4h-1.5c0,1.6,0.7,3,1.7,4
		v6.8c-1.8-0.3-3.5-0.8-5.3-1.4l-3.4-1.3h-2.8v-3.1v-1.6h1.6v-1.5h-1.6c0-0.6,0.1-1.1,0.2-1.7l1.5,0.4l0.4-1.5l-1.5-0.4
		c0.2-0.5,0.4-1,0.6-1.5l1.3,0.8l0.8-1.3l-1.3-0.8c0.3-0.5,0.6-0.9,1-1.3l1.1,1.1l1.1-1.1l-1.1-1.1c0.4-0.4,0.9-0.7,1.3-1l0.8,1.4
		l1.3-0.8l-0.8-1.4c0.5-0.3,1-0.5,1.5-0.7l0.4,1.6l1.5-0.4l-0.4-1.6c0.5-0.1,1.1-0.2,1.7-0.2v1.7h1.5V12c3.2,0.2,6.2,1.6,8.3,4h-2.9
		l-0.8,13.1l-0.6,0.7h-2.5v1.5h3.2l1.4-1.6l0.7-12.1h3.1v-2l-0.2-0.2c-2.7-3.2-6.7-5-10.9-4.9c-7.5,0.1-13.6,6.5-13.6,14.2v2.1v4.6
		v1.4l-18.5,0v-5.5l8.6-3.5h1.2l7.1,2.9l0.6-1.4l-4.5-1.8c-0.4-1.9-1.4-3.6-2.9-4.9c2-1,3.4-2.9,3.8-5.1l0-1.9h-1.4
		c-0.2-1.2-0.9-2.3-1.8-3.2c-1.1-1-2.5-1.5-4-1.4c-0.2-0.8-0.6-1.5-1.1-2.1c-1-1.1-2.5-1.8-4-1.8H9.6v1.5h4.6c1.1,0,2.1,0.5,2.9,1.3
		c0.3,0.3,0.5,0.7,0.6,1h-2c-0.8,0-1.6-0.3-2.3-0.8l-0.6-0.5c-0.9-0.7-2.1-1.1-3.2-1.1V6c0.8,0,1.6,0.3,2.3,0.8l0.6,0.5
		c0.9,0.7,2,1.1,3.2,1.1c-0.9,0.9-1.6,2-1.8,3.4c-0.2,1.4,0.1,2.7,0.8,3.8c0.9,1.5,1.1,3.3,0.4,4.8l-2.3,5.1l0.1,0l-1.8,0.7v6.5
		l-3,0v1.5l3,0v3.4c0,2.6,1.1,5.1,3.1,6.9l4.7,3.7H8.1v1.5h12.7h2.1h17.3v-1.5h-0.6c-2.5,0-4.6-2.1-4.6-4.6h-1.5
		c0,1.8,0.8,3.5,2.1,4.6H24.9l4.7-3.7c2-1.7,3.1-4.2,3.1-6.9v-0.2h2.8l3.4-1.3c1.7-0.7,3.5-1.1,5.3-1.4v15h1.5V34.6
		c0.9-0.1,1.9-0.1,2.8-0.1h8.7v-1.5H48.6z M16.5,20.9c0.9-2,0.7-4.3-0.5-6.2c-0.5-0.8-0.7-1.8-0.6-2.8c0.3-1.8,1.8-3.3,3.6-3.5
		c1.2-0.1,2.4,0.2,3.3,1c0.6,0.5,1,1.2,1.2,2h-2.4v1.5H25v0.2c-0.3,1.9-1.6,3.4-3.3,4.1l-0.6,0.2v0h-2.2v1.5h2.2v0l0.5,0.4
		c1.1,0.8,1.9,1.9,2.3,3.1l-1.1-0.4H21l-6.2,2.5L16.5,20.9z M28.6,43.4l-6.2,4.9h-1l-6.2-4.9c-1.6-1.5-2.6-3.5-2.6-5.7v-3.4l18.5,0
		v3.4C31.2,39.9,30.2,42,28.6,43.4z M38.4,34.8L35.3,36h-2.5v-4.6h2.5l3.2,1.2c1.2,0.4,2.4,0.8,3.6,1.1C40.8,34,39.6,34.3,38.4,34.8
		z"/>
	<rect x="48.1" y="19.1" class="st0" width="1.5" height="1.5"/>
</g>
</svg>
